<?xml version="1.0" standalone="no"?>
<!DOCTYPE svg PUBLIC "-//W3C//DTD SVG 20010904//EN"
 "http://www.w3.org/TR/2001/REC-SVG-20010904/DTD/svg10.dtd">
<svg version="1.0" xmlns="http://www.w3.org/2000/svg"
 width="343.000000pt" height="271.000000pt" viewBox="0 0 343.000000 271.000000"
 preserveAspectRatio="xMidYMid meet">

<g transform="translate(0.000000,271.000000) scale(0.100000,-0.100000)"
fill="#000000" stroke="none">
<path d="M695 2406 c-103 -47 -135 -119 -115 -256 13 -84 13 -84 -11 -100 -52
-33 -119 -104 -140 -148 -16 -34 -23 -66 -23 -117 -1 -60 4 -80 32 -136 17
-37 32 -72 32 -79 0 -7 -20 -34 -44 -61 -106 -118 -103 -284 8 -406 20 -22 36
-48 36 -57 0 -9 -13 -40 -30 -69 -61 -109 -48 -233 35 -325 25 -28 62 -61 82
-73 33 -21 35 -24 29 -63 -16 -108 -17 -134 -7 -174 16 -57 60 -105 123 -132
92 -40 250 -20 452 56 113 43 317 146 412 210 48 33 100 67 116 78 l29 18 102
-70 c244 -167 602 -312 778 -314 65 -1 86 3 133 26 104 51 140 135 113 264
l-14 72 48 36 c150 110 183 237 104 399 l-33 69 40 46 c116 130 119 279 7 412
-21 26 -39 53 -39 61 0 8 14 41 30 73 72 139 38 274 -95 376 -61 48 -63 54
-43 148 16 78 -2 139 -56 196 -48 49 -92 64 -191 64 -179 0 -503 -127 -758
-297 -60 -40 -117 -73 -126 -73 -9 0 -68 34 -131 76 -344 227 -727 344 -885
270z m243 -81 c160 -38 401 -146 564 -254 198 -130 214 -134 309 -66 265 187
614 335 789 335 128 0 176 -66 143 -201 -20 -84 -13 -110 39 -151 128 -101
156 -151 137 -237 -5 -25 -23 -70 -40 -98 -16 -29 -29 -65 -29 -81 0 -29 43
-106 74 -131 29 -24 56 -88 56 -131 0 -50 -24 -99 -84 -168 -58 -67 -59 -97
-11 -188 40 -75 46 -142 18 -201 -9 -19 -47 -59 -84 -89 -97 -77 -104 -96 -73
-201 15 -51 15 -58 -1 -100 -32 -84 -126 -103 -296 -59 -166 42 -374 139 -559
261 -121 79 -152 95 -188 95 -19 0 -67 -25 -143 -76 -142 -94 -393 -220 -524
-263 -134 -44 -244 -52 -302 -23 -27 14 -46 34 -58 59 -16 34 -17 44 -5 93 28
120 27 127 -20 168 -108 94 -137 128 -149 176 -14 56 -4 104 40 181 43 76 39
103 -24 174 -102 114 -103 205 -2 321 68 79 70 104 19 197 -61 109 -49 196 38
265 23 18 59 50 81 71 39 36 39 38 33 90 -19 144 -19 166 -1 193 34 53 130 68
253 39z"/>
<path d="M1067 2020 c-65 -17 -131 -56 -180 -109 -54 -57 -75 -100 -87 -175
-18 -112 38 -242 94 -220 21 8 20 23 -4 75 -70 155 36 338 212 364 214 32 336
-230 174 -373 -54 -48 -150 -68 -176 -37 -23 28 31 203 80 259 35 39 40 65 17
80 -13 8 -23 7 -44 -4 -53 -30 -86 -111 -147 -366 -35 -147 -69 -229 -114
-277 -39 -42 -60 -51 -126 -57 -66 -6 -76 -16 -48 -50 15 -19 28 -23 66 -22
116 5 205 97 261 272 9 30 23 61 29 67 6 7 47 17 90 23 162 20 249 116 249
275 0 118 -61 220 -156 260 -47 20 -141 27 -190 15z"/>
<path d="M2145 1876 c-9 -14 -22 -47 -29 -73 -11 -44 -15 -48 -47 -54 -45 -7
-59 -16 -59 -39 0 -13 10 -22 33 -28 26 -7 31 -13 29 -33 -9 -60 -65 -210 -94
-250 -28 -39 -32 -41 -39 -24 -13 34 -29 187 -27 245 3 50 1 55 -18 58 -28 4
-43 -18 -129 -186 -65 -128 -108 -182 -142 -182 -22 0 -12 92 22 189 27 81 31
116 14 127 -6 3 -46 9 -88 11 -67 4 -80 2 -111 -19 -67 -45 -119 -182 -105
-275 13 -85 73 -115 153 -74 37 19 38 19 61 0 29 -24 68 -24 103 -1 35 23 56
51 106 143 56 102 66 109 80 60 28 -92 7 -171 -42 -154 -43 14 -71 9 -74 -14
-5 -35 37 -56 101 -51 41 3 65 13 101 38 44 32 48 33 58 16 38 -68 92 -74 150
-17 l39 40 36 -40 c41 -45 56 -47 117 -17 l44 21 27 -21 c15 -12 36 -22 47
-22 51 0 114 59 154 145 29 61 30 75 5 75 -13 0 -34 -24 -66 -74 -48 -78 -68
-94 -92 -74 -17 14 -11 72 13 141 26 72 43 147 38 162 -4 9 -23 14 -60 14 -29
0 -58 2 -63 5 -5 3 -24 3 -42 -1 -53 -10 -101 -68 -148 -181 -42 -100 -82
-152 -117 -152 -31 0 -14 121 42 293 25 74 27 77 57 77 41 0 60 13 55 36 -2
12 -13 20 -32 22 -28 3 -28 5 -21 45 14 74 12 111 -7 115 -9 2 -24 -8 -33 -22z
m265 -352 c0 -121 -89 -251 -138 -202 -18 18 -15 77 8 150 25 82 66 122 113
110 13 -3 17 -15 17 -58z m-852 44 c31 -31 -3 -171 -54 -225 -20 -21 -41 -33
-58 -33 -25 0 -26 2 -26 60 0 131 84 252 138 198z"/>
<path d="M1800 1131 c-77 -24 -133 -75 -133 -120 0 -38 14 -55 75 -88 44 -24
49 -30 46 -57 -3 -27 -7 -31 -35 -34 -18 -2 -49 6 -73 18 -23 12 -43 20 -45
18 -2 -2 -5 -21 -7 -42 -3 -35 0 -41 22 -47 123 -35 260 30 260 124 0 43 -16
65 -69 92 -41 20 -61 40 -61 61 0 3 12 9 26 15 21 7 35 5 65 -9 32 -16 39 -17
44 -5 9 24 6 58 -7 71 -13 13 -69 15 -108 3z"/>
<path d="M1086 1078 c-4 -29 -20 -106 -37 -170 -16 -64 -29 -122 -29 -128 0
-7 22 -10 62 -8 l63 3 7 60 c11 85 11 85 67 85 47 0 49 1 53 30 6 38 3 40 -44
40 -31 0 -38 4 -38 19 0 40 11 51 50 51 21 0 52 3 69 6 26 6 31 11 31 35 l0
29 -124 0 -123 0 -7 -52z"/>
<path d="M1401 1064 c-17 -36 -53 -103 -80 -148 -27 -44 -56 -96 -65 -113
l-17 -33 46 0 c43 0 46 2 61 40 11 26 24 42 39 46 37 9 65 -4 65 -31 0 -48 9
-55 71 -55 69 0 65 -16 44 165 -24 213 -17 195 -80 195 l-53 0 -31 -66z m59
-120 l0 -44 -40 0 c-22 0 -40 4 -40 8 0 16 62 92 71 86 5 -3 9 -25 9 -50z"/>
<path d="M1985 1115 c-3 -8 -7 -22 -10 -30 -3 -12 5 -15 35 -15 30 0 40 -4 40
-16 0 -8 -13 -72 -30 -141 -16 -69 -30 -129 -30 -134 0 -5 27 -9 59 -9 l60 0
6 58 c4 31 16 98 28 147 l22 90 48 3 c31 2 47 8 47 17 0 7 3 20 6 29 5 14 -10
16 -135 16 -117 0 -142 -3 -146 -15z"/>
<path d="M2351 1098 c-6 -18 -47 -96 -91 -173 -44 -77 -80 -143 -80 -147 0 -4
18 -8 40 -8 36 0 41 3 60 41 20 38 23 40 63 37 39 -3 42 -5 45 -35 4 -37 23
-46 88 -41 28 2 39 7 37 18 -1 8 -9 88 -19 178 l-18 162 -57 0 c-56 0 -58 -1
-68 -32z m39 -154 l0 -44 -40 0 c-22 0 -40 3 -40 6 0 15 62 94 71 89 5 -4 9
-26 9 -51z"/>
</g>
</svg>
